<svg viewBox="0 0 240 234" xmlns="http://www.w3.org/2000/svg">
  <defs>
    <linearGradient id="afterEffectsGrad" x1="0%" y1="0%" x2="100%" y2="100%">
      <stop offset="0%" stop-color="#00005B"/>
      <stop offset="100%" stop-color="#9999FF"/>
    </linearGradient>
  </defs>
  <rect width="240" height="234" rx="42" fill="url(#afterEffectsGrad)"/>
  <g>
    <path d="M84.19 121.63l-4.88-16.54h-21.6l-4.64 16.54H39.51L60.63 59.45h14.52L96.07 121.63H84.19zM76.83 91.21l-7.68-26.04h-0.24L61.35 91.21H76.83z" fill="white"/>
    <path d="M130.79 123.03c-18.24 0-28.32-12.48-28.32-32.28 0-19.92 10.32-32.4 27.12-32.4 15.84 0 25.44 11.04 25.44 30.48v4.8h-39.36c0.48 11.28 6.24 17.04 16.32 17.04 6.96 0 12.48-2.16 17.04-6.24l5.76 9.36C149.75 119.83 141.35 123.03 130.79 123.03zM142.31 86.53c0-10.08-4.32-15.36-12.24-15.36-7.68 0-13.2 5.52-14.4 15.36H142.31z" fill="white"/>
  </g>
</svg>