<svg viewBox="0 0 240 234" xmlns="http://www.w3.org/2000/svg">
  <defs>
    <linearGradient id="premiereGrad" x1="0%" y1="0%" x2="100%" y2="100%">
      <stop offset="0%" stop-color="#00005B"/>
      <stop offset="100%" stop-color="#EA77FF"/>
    </linearGradient>
  </defs>
  <rect width="240" height="234" rx="42" fill="url(#premiereGrad)"/>
  <g>
    <path d="M50.16 59.45h23.28c6.24 0 11.28 1.2 15.12 3.6s6.72 5.52 8.64 9.36c1.92 3.84 2.88 8.16 2.88 12.96 0 6.72-1.92 12.48-5.76 17.28s-9.6 7.68-17.28 8.88v0.48c1.68 0.96 3.12 2.4 4.32 4.32s2.16 4.08 2.88 6.48l9.84 27.6H80.88l-8.4-24.24c-1.2-3.36-2.64-5.76-4.32-7.2s-4.08-2.16-7.2-2.16H63.12v33.6H50.16V59.45zM63.12 70.73v25.92h9.36c4.32 0 7.68-1.2 10.08-3.6s3.6-5.76 3.6-10.08-1.2-7.68-3.6-10.08-5.76-3.6-10.08-3.6L63.12 70.73z" fill="white"/>
    <path d="M130.79 122.03c-6.24 0-11.28-1.44-15.12-4.32s-6.72-6.72-8.64-11.52l10.08-4.56c1.44 3.36 3.36 5.88 5.76 7.56s5.28 2.52 8.64 2.52c3.12 0 5.52-0.72 7.2-2.16s2.52-3.36 2.52-5.76c0-2.64-1.2-4.56-3.6-5.76s-6.24-2.64-11.52-4.32c-4.8-1.44-8.4-3.6-10.8-6.48s-3.6-6.48-3.6-10.8c0-5.28 1.92-9.6 5.76-12.96s8.88-5.04 15.12-5.04c5.28 0 9.6 1.2 12.96 3.6s5.76 5.76 7.2 10.08l-9.6 4.8c-2.16-5.04-5.76-7.56-10.8-7.56-2.64 0-4.68 0.6-6.12 1.8s-2.16 2.88-2.16 5.04c0 2.16 1.08 3.84 3.24 5.04s5.52 2.4 10.32 3.84c5.04 1.68 8.76 3.96 11.16 6.84s3.6 6.48 3.6 10.8c0 5.52-1.92 9.84-5.76 12.96S136.79 122.03 130.79 122.03z" fill="white"/>
  </g>
</svg>